<mxfile host="app.diagrams.net" modified="2024-04-16T11:40:42.049Z" agent="Mozilla/5.0 (Windows NT 10.0; Win64; x64) AppleWebKit/537.36 (KHTML, like Gecko) Chrome/123.0.0.0 Safari/537.36" etag="9q5qpP3_cv-j3zZKJCRw" version="24.2.5" type="device">
  <diagram name="‫עמוד-1‬" id="FckXrY06QEViqWFS10TZ">
    <mxGraphModel dx="1050" dy="565" grid="1" gridSize="10" guides="1" tooltips="1" connect="1" arrows="1" fold="1" page="1" pageScale="1" pageWidth="827" pageHeight="1169" math="0" shadow="0">
      <root>
        <mxCell id="0" />
        <mxCell id="1" parent="0" />
        <mxCell id="8KfbOgWl2cPWzyX1KpPv-1" value="UI" style="rounded=1;whiteSpace=wrap;html=1;" vertex="1" parent="1">
          <mxGeometry y="315" width="120" height="60" as="geometry" />
        </mxCell>
        <mxCell id="8KfbOgWl2cPWzyX1KpPv-2" value="Backend (Web server API)" style="rounded=1;whiteSpace=wrap;html=1;" vertex="1" parent="1">
          <mxGeometry x="220" y="220" width="310" height="250" as="geometry" />
        </mxCell>
        <mxCell id="8KfbOgWl2cPWzyX1KpPv-4" value="Users management module" style="rounded=1;whiteSpace=wrap;html=1;" vertex="1" parent="1">
          <mxGeometry x="240" y="405" width="120" height="60" as="geometry" />
        </mxCell>
        <mxCell id="8KfbOgWl2cPWzyX1KpPv-5" value="Real-time stocks data provider module" style="rounded=1;whiteSpace=wrap;html=1;" vertex="1" parent="1">
          <mxGeometry x="400" y="405" width="120" height="60" as="geometry" />
        </mxCell>
        <mxCell id="8KfbOgWl2cPWzyX1KpPv-6" value="Simulator management module" style="rounded=1;whiteSpace=wrap;html=1;" vertex="1" parent="1">
          <mxGeometry x="230" y="230" width="120" height="60" as="geometry" />
        </mxCell>
        <mxCell id="8KfbOgWl2cPWzyX1KpPv-7" value="Investment advisor gateway module" style="rounded=1;whiteSpace=wrap;html=1;" vertex="1" parent="1">
          <mxGeometry x="404" y="230" width="120" height="60" as="geometry" />
        </mxCell>
        <mxCell id="8KfbOgWl2cPWzyX1KpPv-8" value="Database - user_data table" style="shape=cylinder3;whiteSpace=wrap;html=1;boundedLbl=1;backgroundOutline=1;size=15;" vertex="1" parent="1">
          <mxGeometry x="240" y="555" width="120" height="80" as="geometry" />
        </mxCell>
        <mxCell id="8KfbOgWl2cPWzyX1KpPv-9" value="" style="endArrow=classic;html=1;rounded=0;entryX=0.5;entryY=0;entryDx=0;entryDy=0;entryPerimeter=0;exitX=0.5;exitY=1;exitDx=0;exitDy=0;" edge="1" parent="1" source="8KfbOgWl2cPWzyX1KpPv-4" target="8KfbOgWl2cPWzyX1KpPv-8">
          <mxGeometry width="50" height="50" relative="1" as="geometry">
            <mxPoint x="275" y="535" as="sourcePoint" />
            <mxPoint x="325" y="485" as="targetPoint" />
          </mxGeometry>
        </mxCell>
        <mxCell id="8KfbOgWl2cPWzyX1KpPv-10" value="" style="endArrow=classic;html=1;rounded=0;exitX=0.5;exitY=1;exitDx=0;exitDy=0;entryX=0.5;entryY=0;entryDx=0;entryDy=0;" edge="1" parent="1" source="8KfbOgWl2cPWzyX1KpPv-5" target="8KfbOgWl2cPWzyX1KpPv-11">
          <mxGeometry width="50" height="50" relative="1" as="geometry">
            <mxPoint x="510" y="535" as="sourcePoint" />
            <mxPoint x="460" y="555" as="targetPoint" />
          </mxGeometry>
        </mxCell>
        <mxCell id="8KfbOgWl2cPWzyX1KpPv-11" value="Real-time stock market API" style="ellipse;whiteSpace=wrap;html=1;" vertex="1" parent="1">
          <mxGeometry x="400" y="555" width="120" height="80" as="geometry" />
        </mxCell>
        <mxCell id="8KfbOgWl2cPWzyX1KpPv-15" value="Database - user_investments table" style="shape=cylinder3;whiteSpace=wrap;html=1;boundedLbl=1;backgroundOutline=1;size=15;" vertex="1" parent="1">
          <mxGeometry x="80" y="20" width="120" height="80" as="geometry" />
        </mxCell>
        <mxCell id="8KfbOgWl2cPWzyX1KpPv-16" value="Database - achievements table" style="shape=cylinder3;whiteSpace=wrap;html=1;boundedLbl=1;backgroundOutline=1;size=15;" vertex="1" parent="1">
          <mxGeometry x="230" y="20" width="120" height="80" as="geometry" />
        </mxCell>
        <mxCell id="8KfbOgWl2cPWzyX1KpPv-17" value="Database - user_to_acievement table" style="shape=cylinder3;whiteSpace=wrap;html=1;boundedLbl=1;backgroundOutline=1;size=15;" vertex="1" parent="1">
          <mxGeometry x="380" y="20" width="120" height="80" as="geometry" />
        </mxCell>
        <mxCell id="8KfbOgWl2cPWzyX1KpPv-24" value="" style="edgeStyle=elbowEdgeStyle;elbow=vertical;endArrow=classic;html=1;curved=0;rounded=0;endSize=8;startSize=8;entryX=0.5;entryY=1;entryDx=0;entryDy=0;entryPerimeter=0;exitX=0.5;exitY=0;exitDx=0;exitDy=0;" edge="1" parent="1" source="8KfbOgWl2cPWzyX1KpPv-6" target="8KfbOgWl2cPWzyX1KpPv-15">
          <mxGeometry width="50" height="50" relative="1" as="geometry">
            <mxPoint x="110" y="160" as="sourcePoint" />
            <mxPoint x="160" y="110" as="targetPoint" />
          </mxGeometry>
        </mxCell>
        <mxCell id="8KfbOgWl2cPWzyX1KpPv-25" value="" style="edgeStyle=elbowEdgeStyle;elbow=vertical;endArrow=classic;html=1;curved=0;rounded=0;endSize=8;startSize=8;entryX=0.5;entryY=1;entryDx=0;entryDy=0;entryPerimeter=0;exitX=0.5;exitY=0;exitDx=0;exitDy=0;" edge="1" parent="1" source="8KfbOgWl2cPWzyX1KpPv-6" target="8KfbOgWl2cPWzyX1KpPv-16">
          <mxGeometry width="50" height="50" relative="1" as="geometry">
            <mxPoint x="310" y="160" as="sourcePoint" />
            <mxPoint x="360" y="110" as="targetPoint" />
          </mxGeometry>
        </mxCell>
        <mxCell id="8KfbOgWl2cPWzyX1KpPv-26" value="" style="edgeStyle=elbowEdgeStyle;elbow=vertical;endArrow=classic;html=1;curved=0;rounded=0;endSize=8;startSize=8;entryX=0.5;entryY=1;entryDx=0;entryDy=0;entryPerimeter=0;" edge="1" parent="1" target="8KfbOgWl2cPWzyX1KpPv-17">
          <mxGeometry width="50" height="50" relative="1" as="geometry">
            <mxPoint x="290" y="230" as="sourcePoint" />
            <mxPoint x="410" y="140" as="targetPoint" />
          </mxGeometry>
        </mxCell>
        <mxCell id="8KfbOgWl2cPWzyX1KpPv-27" value="" style="endArrow=classic;startArrow=classic;html=1;rounded=0;entryX=0;entryY=0.5;entryDx=0;entryDy=0;exitX=1;exitY=0.5;exitDx=0;exitDy=0;" edge="1" parent="1" source="8KfbOgWl2cPWzyX1KpPv-1" target="8KfbOgWl2cPWzyX1KpPv-2">
          <mxGeometry width="50" height="50" relative="1" as="geometry">
            <mxPoint x="150" y="380" as="sourcePoint" />
            <mxPoint x="200" y="330" as="targetPoint" />
          </mxGeometry>
        </mxCell>
        <mxCell id="8KfbOgWl2cPWzyX1KpPv-28" value="AI model" style="shape=hexagon;perimeter=hexagonPerimeter2;whiteSpace=wrap;html=1;fixedSize=1;" vertex="1" parent="1">
          <mxGeometry x="670" y="220" width="120" height="80" as="geometry" />
        </mxCell>
        <mxCell id="8KfbOgWl2cPWzyX1KpPv-29" value="Market analytics API" style="ellipse;whiteSpace=wrap;html=1;" vertex="1" parent="1">
          <mxGeometry x="670" y="120" width="120" height="80" as="geometry" />
        </mxCell>
        <mxCell id="8KfbOgWl2cPWzyX1KpPv-30" value="Database - user_analytic_data table" style="shape=cylinder3;whiteSpace=wrap;html=1;boundedLbl=1;backgroundOutline=1;size=15;" vertex="1" parent="1">
          <mxGeometry x="670" y="325" width="120" height="80" as="geometry" />
        </mxCell>
        <mxCell id="8KfbOgWl2cPWzyX1KpPv-32" value="" style="edgeStyle=elbowEdgeStyle;elbow=horizontal;endArrow=classic;html=1;curved=0;rounded=0;endSize=8;startSize=8;entryX=0;entryY=0.5;entryDx=0;entryDy=0;exitX=1;exitY=0.5;exitDx=0;exitDy=0;" edge="1" parent="1" source="8KfbOgWl2cPWzyX1KpPv-7" target="8KfbOgWl2cPWzyX1KpPv-29">
          <mxGeometry width="50" height="50" relative="1" as="geometry">
            <mxPoint x="560" y="280" as="sourcePoint" />
            <mxPoint x="610" y="230" as="targetPoint" />
          </mxGeometry>
        </mxCell>
        <mxCell id="8KfbOgWl2cPWzyX1KpPv-33" value="" style="edgeStyle=elbowEdgeStyle;elbow=horizontal;endArrow=classic;html=1;curved=0;rounded=0;endSize=8;startSize=8;entryX=0;entryY=0.5;entryDx=0;entryDy=0;exitX=1;exitY=0.5;exitDx=0;exitDy=0;" edge="1" parent="1" source="8KfbOgWl2cPWzyX1KpPv-7" target="8KfbOgWl2cPWzyX1KpPv-28">
          <mxGeometry width="50" height="50" relative="1" as="geometry">
            <mxPoint x="580" y="310" as="sourcePoint" />
            <mxPoint x="630" y="260" as="targetPoint" />
          </mxGeometry>
        </mxCell>
        <mxCell id="8KfbOgWl2cPWzyX1KpPv-34" value="" style="edgeStyle=elbowEdgeStyle;elbow=horizontal;endArrow=classic;html=1;curved=0;rounded=0;endSize=8;startSize=8;entryX=0;entryY=0.5;entryDx=0;entryDy=0;entryPerimeter=0;exitX=1;exitY=0.164;exitDx=0;exitDy=0;exitPerimeter=0;" edge="1" parent="1" source="8KfbOgWl2cPWzyX1KpPv-2" target="8KfbOgWl2cPWzyX1KpPv-30">
          <mxGeometry width="50" height="50" relative="1" as="geometry">
            <mxPoint x="560" y="350" as="sourcePoint" />
            <mxPoint x="610" y="300" as="targetPoint" />
          </mxGeometry>
        </mxCell>
        <mxCell id="8KfbOgWl2cPWzyX1KpPv-37" value="&lt;span style=&quot;font-weight: 700;&quot;&gt;user_investment_status&lt;/span&gt;" style="swimlane;fontStyle=0;childLayout=stackLayout;horizontal=1;startSize=30;horizontalStack=0;resizeParent=1;resizeParentMax=0;resizeLast=0;collapsible=1;marginBottom=0;whiteSpace=wrap;html=1;" vertex="1" parent="1">
          <mxGeometry x="40" y="890" width="200" height="120" as="geometry" />
        </mxCell>
        <mxCell id="8KfbOgWl2cPWzyX1KpPv-38" value="&lt;span style=&quot;text-wrap: nowrap;&quot;&gt;user_id (string)&lt;/span&gt;" style="text;strokeColor=none;fillColor=none;align=left;verticalAlign=middle;spacingLeft=4;spacingRight=4;overflow=hidden;points=[[0,0.5],[1,0.5]];portConstraint=eastwest;rotatable=0;whiteSpace=wrap;html=1;" vertex="1" parent="8KfbOgWl2cPWzyX1KpPv-37">
          <mxGeometry y="30" width="200" height="30" as="geometry" />
        </mxCell>
        <mxCell id="8KfbOgWl2cPWzyX1KpPv-39" value="&lt;span style=&quot;text-wrap: nowrap;&quot;&gt;account_balance (double)&lt;/span&gt;" style="text;strokeColor=none;fillColor=none;align=left;verticalAlign=middle;spacingLeft=4;spacingRight=4;overflow=hidden;points=[[0,0.5],[1,0.5]];portConstraint=eastwest;rotatable=0;whiteSpace=wrap;html=1;" vertex="1" parent="8KfbOgWl2cPWzyX1KpPv-37">
          <mxGeometry y="60" width="200" height="30" as="geometry" />
        </mxCell>
        <mxCell id="8KfbOgWl2cPWzyX1KpPv-40" value="&lt;span style=&quot;text-wrap: nowrap;&quot;&gt;positions (list&amp;lt;position&amp;gt;)&lt;/span&gt;" style="text;strokeColor=none;fillColor=none;align=left;verticalAlign=middle;spacingLeft=4;spacingRight=4;overflow=hidden;points=[[0,0.5],[1,0.5]];portConstraint=eastwest;rotatable=0;whiteSpace=wrap;html=1;" vertex="1" parent="8KfbOgWl2cPWzyX1KpPv-37">
          <mxGeometry y="90" width="200" height="30" as="geometry" />
        </mxCell>
        <mxCell id="8KfbOgWl2cPWzyX1KpPv-41" value="&lt;span style=&quot;font-weight: 700;&quot;&gt;achievements&lt;/span&gt;" style="swimlane;fontStyle=0;childLayout=stackLayout;horizontal=1;startSize=30;horizontalStack=0;resizeParent=1;resizeParentMax=0;resizeLast=0;collapsible=1;marginBottom=0;whiteSpace=wrap;html=1;" vertex="1" parent="1">
          <mxGeometry x="290" y="890" width="200" height="120" as="geometry" />
        </mxCell>
        <mxCell id="8KfbOgWl2cPWzyX1KpPv-42" value="&lt;span style=&quot;text-wrap: nowrap;&quot;&gt;acievement_id (string)&lt;/span&gt;" style="text;strokeColor=none;fillColor=none;align=left;verticalAlign=middle;spacingLeft=4;spacingRight=4;overflow=hidden;points=[[0,0.5],[1,0.5]];portConstraint=eastwest;rotatable=0;whiteSpace=wrap;html=1;" vertex="1" parent="8KfbOgWl2cPWzyX1KpPv-41">
          <mxGeometry y="30" width="200" height="30" as="geometry" />
        </mxCell>
        <mxCell id="8KfbOgWl2cPWzyX1KpPv-43" value="&lt;span style=&quot;text-wrap: nowrap;&quot;&gt;description (string)&lt;/span&gt;" style="text;strokeColor=none;fillColor=none;align=left;verticalAlign=middle;spacingLeft=4;spacingRight=4;overflow=hidden;points=[[0,0.5],[1,0.5]];portConstraint=eastwest;rotatable=0;whiteSpace=wrap;html=1;" vertex="1" parent="8KfbOgWl2cPWzyX1KpPv-41">
          <mxGeometry y="60" width="200" height="30" as="geometry" />
        </mxCell>
        <mxCell id="8KfbOgWl2cPWzyX1KpPv-44" value="&lt;span style=&quot;text-wrap: nowrap;&quot;&gt;type (string - bronze/silver/gold)&lt;/span&gt;" style="text;strokeColor=none;fillColor=none;align=left;verticalAlign=middle;spacingLeft=4;spacingRight=4;overflow=hidden;points=[[0,0.5],[1,0.5]];portConstraint=eastwest;rotatable=0;whiteSpace=wrap;html=1;" vertex="1" parent="8KfbOgWl2cPWzyX1KpPv-41">
          <mxGeometry y="90" width="200" height="30" as="geometry" />
        </mxCell>
        <mxCell id="8KfbOgWl2cPWzyX1KpPv-45" value="&lt;span style=&quot;font-weight: 700;&quot;&gt;user_to_achievement&lt;/span&gt;" style="swimlane;fontStyle=0;childLayout=stackLayout;horizontal=1;startSize=30;horizontalStack=0;resizeParent=1;resizeParentMax=0;resizeLast=0;collapsible=1;marginBottom=0;whiteSpace=wrap;html=1;" vertex="1" parent="1">
          <mxGeometry x="540" y="890" width="200" height="120" as="geometry" />
        </mxCell>
        <mxCell id="8KfbOgWl2cPWzyX1KpPv-46" value="&lt;span style=&quot;text-wrap: nowrap;&quot;&gt;user_id (string)&lt;/span&gt;" style="text;strokeColor=none;fillColor=none;align=left;verticalAlign=middle;spacingLeft=4;spacingRight=4;overflow=hidden;points=[[0,0.5],[1,0.5]];portConstraint=eastwest;rotatable=0;whiteSpace=wrap;html=1;" vertex="1" parent="8KfbOgWl2cPWzyX1KpPv-45">
          <mxGeometry y="30" width="200" height="30" as="geometry" />
        </mxCell>
        <mxCell id="8KfbOgWl2cPWzyX1KpPv-47" value="&lt;span style=&quot;text-wrap: nowrap;&quot;&gt;achievement_id (double)&lt;/span&gt;" style="text;strokeColor=none;fillColor=none;align=left;verticalAlign=middle;spacingLeft=4;spacingRight=4;overflow=hidden;points=[[0,0.5],[1,0.5]];portConstraint=eastwest;rotatable=0;whiteSpace=wrap;html=1;" vertex="1" parent="8KfbOgWl2cPWzyX1KpPv-45">
          <mxGeometry y="60" width="200" height="30" as="geometry" />
        </mxCell>
        <mxCell id="8KfbOgWl2cPWzyX1KpPv-48" value="&lt;span style=&quot;text-wrap: nowrap;&quot;&gt;achieved_time (dateTime)&lt;/span&gt;" style="text;strokeColor=none;fillColor=none;align=left;verticalAlign=middle;spacingLeft=4;spacingRight=4;overflow=hidden;points=[[0,0.5],[1,0.5]];portConstraint=eastwest;rotatable=0;whiteSpace=wrap;html=1;" vertex="1" parent="8KfbOgWl2cPWzyX1KpPv-45">
          <mxGeometry y="90" width="200" height="30" as="geometry" />
        </mxCell>
        <mxCell id="8KfbOgWl2cPWzyX1KpPv-54" value="user_data" style="swimlane;whiteSpace=wrap;html=1;" vertex="1" parent="1">
          <mxGeometry x="290" y="1040" width="200" height="140" as="geometry" />
        </mxCell>
        <mxCell id="8KfbOgWl2cPWzyX1KpPv-55" value="&lt;span style=&quot;text-wrap: nowrap;&quot;&gt;user_id (string)&lt;/span&gt;" style="text;strokeColor=none;fillColor=none;align=left;verticalAlign=middle;spacingLeft=4;spacingRight=4;overflow=hidden;points=[[0,0.5],[1,0.5]];portConstraint=eastwest;rotatable=0;whiteSpace=wrap;html=1;" vertex="1" parent="8KfbOgWl2cPWzyX1KpPv-54">
          <mxGeometry y="20" width="200" height="30" as="geometry" />
        </mxCell>
        <mxCell id="8KfbOgWl2cPWzyX1KpPv-56" value="&lt;span style=&quot;text-wrap: nowrap;&quot;&gt;username (string)&lt;/span&gt;" style="text;strokeColor=none;fillColor=none;align=left;verticalAlign=middle;spacingLeft=4;spacingRight=4;overflow=hidden;points=[[0,0.5],[1,0.5]];portConstraint=eastwest;rotatable=0;whiteSpace=wrap;html=1;" vertex="1" parent="8KfbOgWl2cPWzyX1KpPv-54">
          <mxGeometry y="50" width="200" height="30" as="geometry" />
        </mxCell>
        <mxCell id="8KfbOgWl2cPWzyX1KpPv-57" value="&lt;span style=&quot;text-wrap: nowrap;&quot;&gt;email (string)&lt;/span&gt;" style="text;strokeColor=none;fillColor=none;align=left;verticalAlign=middle;spacingLeft=4;spacingRight=4;overflow=hidden;points=[[0,0.5],[1,0.5]];portConstraint=eastwest;rotatable=0;whiteSpace=wrap;html=1;" vertex="1" parent="8KfbOgWl2cPWzyX1KpPv-54">
          <mxGeometry y="80" width="200" height="30" as="geometry" />
        </mxCell>
        <mxCell id="8KfbOgWl2cPWzyX1KpPv-58" value="&lt;span style=&quot;text-wrap: nowrap;&quot;&gt;signed_up_time (dateTime)&lt;/span&gt;" style="text;strokeColor=none;fillColor=none;align=left;verticalAlign=middle;spacingLeft=4;spacingRight=4;overflow=hidden;points=[[0,0.5],[1,0.5]];portConstraint=eastwest;rotatable=0;whiteSpace=wrap;html=1;" vertex="1" parent="8KfbOgWl2cPWzyX1KpPv-54">
          <mxGeometry y="110" width="200" height="30" as="geometry" />
        </mxCell>
      </root>
    </mxGraphModel>
  </diagram>
</mxfile>
